<svg width="91" height="91" viewBox="0 0 91 91" fill="none" xmlns="http://www.w3.org/2000/svg">
<path d="M11.9649 73.7945C22.1947 68.0124 33.7492 64.9822 45.5 65C57.6875 65 69.1291 68.1931 79.0351 73.7945M60.125 35.75C60.125 39.6288 58.5842 43.3487 55.8414 46.0914C53.0987 48.8342 49.3788 50.375 45.5 50.375C41.6212 50.375 37.9013 48.8342 35.1586 46.0914C32.4158 43.3487 30.875 39.6288 30.875 35.75C30.875 31.8712 32.4158 28.1513 35.1586 25.4086C37.9013 22.6658 41.6212 21.125 45.5 21.125C49.3788 21.125 53.0987 22.6658 55.8414 25.4086C58.5842 28.1513 60.125 31.8712 60.125 35.75ZM89.375 45.5C89.375 51.2617 88.2401 56.9671 86.0352 62.2902C83.8303 67.6134 80.5985 72.4501 76.5243 76.5243C72.4501 80.5985 67.6134 83.8303 62.2902 86.0352C56.9671 88.2401 51.2617 89.375 45.5 89.375C39.7383 89.375 34.0329 88.2401 28.7098 86.0352C23.3866 83.8303 18.5499 80.5985 14.4757 76.5243C10.4015 72.4501 7.16971 67.6134 4.96479 62.2902C2.75986 56.9671 1.625 51.2617 1.625 45.5C1.625 33.8636 6.24753 22.7038 14.4757 14.4757C22.7038 6.24753 33.8636 1.625 45.5 1.625C57.1364 1.625 68.2961 6.24753 76.5243 14.4757C84.7525 22.7038 89.375 33.8636 89.375 45.5Z" stroke="#3F3F46" stroke-width="2" stroke-linecap="round" stroke-linejoin="round"/>
</svg>
