<svg width="161" height="28" viewBox="0 0 161 28" fill="none" xmlns="http://www.w3.org/2000/svg">
<path d="M24.52 -1.90735e-06C25.3733 -1.90735e-06 25.8 0.359998 25.8 1.08V2.08C25.8 2.8 25.3733 3.16 24.52 3.16H23.48V26.52C23.48 26.9467 23.3467 27.3067 23.08 27.6C22.8133 27.8667 22.4667 28 22.04 28H20.68C20.28 28 19.9333 27.8133 19.64 27.44L6.12 6.2V24.84H7.16C8.04 24.84 8.48 25.2 8.48 25.92V26.92C8.48 27.64 8.04 28 7.16 28H1.8C0.92 28 0.48 27.64 0.48 26.92V25.92C0.48 25.2 0.92 24.84 1.8 24.84H2.84V3.16H1.8C0.92 3.16 0.48 2.8 0.48 2.08V1.08C0.48 0.359998 0.92 -1.90735e-06 1.8 -1.90735e-06H5.6C6.02667 -1.90735e-06 6.38667 0.186665 6.68 0.559998L20.2 21.8V3.16H19.12C18.2667 3.16 17.84 2.8 17.84 2.08V1.08C17.84 0.359998 18.2667 -1.90735e-06 19.12 -1.90735e-06H24.52ZM37 28C36.12 28 35.68 27.64 35.68 26.92V25.92C35.68 25.2 36.12 24.84 37 24.84H38.04V3.16H37C36.12 3.16 35.68 2.8 35.68 2.08V1.08C35.68 0.359998 36.12 -1.90735e-06 37 -1.90735e-06H42.68C43.56 -1.90735e-06 44 0.359998 44 1.08V2.08C44 2.8 43.56 3.16 42.68 3.16H41.64V24.84H42.68C43.56 24.84 44 25.2 44 25.92V26.92C44 27.64 43.56 28 42.68 28H37ZM77.6013 24.84C78.4813 24.84 78.9213 25.2 78.9213 25.92V26.92C78.9213 27.64 78.4813 28 77.6013 28H70.2813C69.4013 28 68.9613 27.64 68.9613 26.92V25.92C68.9613 25.2 69.4013 24.84 70.2813 24.84H70.9613L60.1213 14.32V24.84H61.1613C62.0413 24.84 62.4813 25.2 62.4813 25.92V26.92C62.4813 27.64 62.0413 28 61.1613 28H55.4813C54.6013 28 54.1613 27.64 54.1613 26.92V25.92C54.1613 25.2 54.6013 24.84 55.4813 24.84H56.5213V3.16H55.4813C54.6013 3.16 54.1613 2.8 54.1613 2.08V1.08C54.1613 0.359998 54.6013 -1.90735e-06 55.4813 -1.90735e-06H61.1613C62.0413 -1.90735e-06 62.4813 0.359998 62.4813 1.08V2.08C62.4813 2.8 62.0413 3.16 61.1613 3.16H60.1213V13.04L71.0413 3.16H70.2413C69.3879 3.16 68.9613 2.8 68.9613 2.08V1.08C68.9613 0.706665 69.0413 0.439999 69.2013 0.279999C69.3879 0.0933318 69.6813 -1.90735e-06 70.0813 -1.90735e-06H77.0013C77.8546 -1.90735e-06 78.2813 0.359998 78.2813 1.08V2.08C78.2813 2.8 77.8546 3.16 77.0013 3.16H75.4813L63.9613 13.4L75.8013 24.84H77.6013ZM89.9 28C89.02 28 88.58 27.64 88.58 26.92V25.92C88.58 25.2 89.02 24.84 89.9 24.84H90.94V3.16H89.9C89.02 3.16 88.58 2.8 88.58 2.08V1.08C88.58 0.359998 89.02 -1.90735e-06 89.9 -1.90735e-06H95.58C96.46 -1.90735e-06 96.9 0.359998 96.9 1.08V2.08C96.9 2.8 96.46 3.16 95.58 3.16H94.54V24.84H95.58C96.46 24.84 96.9 25.2 96.9 25.92V26.92C96.9 27.64 96.46 28 95.58 28H89.9ZM127.061 -1.90735e-06C127.515 -1.90735e-06 127.888 0.159998 128.181 0.479999C128.501 0.773332 128.661 1.14667 128.661 1.6V5.88C128.661 6.76 128.301 7.2 127.581 7.2H126.581C125.861 7.2 125.501 6.76 125.501 5.88V3.16H119.461V24.84H120.501C121.381 24.84 121.821 25.2 121.821 25.92V26.92C121.821 27.64 121.381 28 120.501 28H114.821C113.968 28 113.541 27.64 113.541 26.92V25.92C113.541 25.2 113.968 24.84 114.821 24.84H115.861V3.16H109.821V5.88C109.821 6.76 109.461 7.2 108.741 7.2H107.741C107.021 7.2 106.661 6.76 106.661 5.88V1.6C106.661 1.14667 106.808 0.773332 107.101 0.479999C107.395 0.159998 107.768 -1.90735e-06 108.221 -1.90735e-06H127.061ZM159.173 24.84C160.053 24.84 160.493 25.2 160.493 25.92V26.92C160.493 27.64 160.053 28 159.173 28H153.373C152.493 28 152.053 27.64 152.053 26.92V25.92C152.053 25.2 152.493 24.84 153.373 24.84H154.412L152.133 18.96H141.453L139.253 24.84H140.293C141.173 24.84 141.613 25.2 141.613 25.92V26.92C141.613 27.64 141.173 28 140.293 28H134.813C133.959 28 133.533 27.64 133.533 26.92V25.92C133.533 25.2 133.959 24.84 134.813 24.84H135.853L144.973 0.919998C145.079 0.653332 145.253 0.439999 145.493 0.279999C145.733 0.0933318 145.999 -1.90735e-06 146.293 -1.90735e-06H147.493C147.759 -1.90735e-06 148.013 0.0799987 148.253 0.24C148.493 0.399999 148.666 0.613332 148.773 0.879999L158.133 24.84H159.173ZM150.933 15.8L146.733 4.96L142.653 15.8H150.933Z" fill="black"/>
</svg>
