<svg width="63" height="63" viewBox="0 0 63 63" fill="none" xmlns="http://www.w3.org/2000/svg">
<path d="M49.5572 22.8869L49.8183 22.8905C50.7872 22.9706 51.5298 23.775 51.5812 24.7434L51.5563 25.2833L50.7307 35.3928L49.8647 45.2586C49.6815 47.2281 49.5175 48.8893 49.3759 50.197C48.884 54.7543 45.9257 57.5724 41.4661 57.6558C34.5171 57.7842 27.8375 57.7829 21.351 57.6426C17.0204 57.5517 14.1059 54.703 13.6226 50.2154L13.2885 46.9092L12.7048 40.4959L12.1069 33.4584L11.4233 25.0107C11.3383 23.9268 12.1262 22.9776 13.1831 22.8904C14.152 22.8105 15.0105 23.4828 15.2124 24.4303L15.2909 25.2045L15.9329 33.1241L16.6338 41.3329C16.9482 44.8865 17.2209 47.7624 17.4391 49.7826C17.7145 52.3399 19.0611 53.656 21.4308 53.7058C27.8666 53.845 34.4964 53.8463 41.3965 53.7188C43.9102 53.6718 45.2782 52.3686 45.5595 49.7631L45.8921 46.4745C45.9894 45.4611 46.0935 44.3422 46.2035 43.1269L46.9052 35.0537L47.7503 24.6947C47.7503 21.7027 48.613 22.9396 49.5572 22.8869ZM9.7949 18.3466C8.73457 18.3466 7.875 17.4651 7.875 16.3778C7.875 15.381 8.59728 14.5573 9.53438 14.4269L9.7949 14.409H18.159C19.1529 14.409 20.0231 13.7531 20.3343 12.8081L20.4105 12.5163L21.0605 9.20148C21.6329 7.00604 23.4917 5.44292 25.6699 5.26662L26.0818 5.25H36.9177C39.1321 5.25 41.0874 6.68397 41.8401 8.89976L41.9669 9.32423L42.5888 12.5156C42.7841 13.5154 43.5816 14.2621 44.5465 14.3897L44.8405 14.409H53.2051C54.2654 14.409 55.125 15.2904 55.125 16.3778C55.125 17.3745 54.4027 18.1983 53.4656 18.3286L53.2051 18.3466H9.7949ZM36.9177 9.18764H26.0818C25.5431 9.18764 25.0643 9.51096 24.8654 9.91732L24.7979 10.0959L24.1757 13.2888C24.0996 13.6785 23.9893 14.0537 23.8484 14.4116L39.1514 14.4121C39.0634 14.1888 38.9874 13.9588 38.9241 13.7227L38.8236 13.288L38.2295 10.2186C38.0906 9.68602 37.6618 9.29613 37.1443 9.20698L36.9177 9.18764Z" fill="black"/>
</svg>
